<svg xmlns="http://www.w3.org/2000/svg" width="110" height="142" viewBox="0 0 110 142" fill="#0A846E">
  <g filter="url(#filter0_d_838_14)">
    <path d="M95.2315 131H7C7 131 8.74071 119.738 13.5171 114.949C17.9119 110.542 22.1813 110.481 28.0553 108.428C35.363 105.875 39.627 104.339 47.3559 103.914C57.4794 103.356 63.1977 105.56 72.923 108.428C79.7587 110.444 85.1476 109.697 89.9677 114.949C94.4274 119.808 95.2315 131 95.2315 131Z" stroke="white" stroke-width="5" stroke-linecap="round"/>
    <path d="M91.9594 6.09341C93.4824 3.2804 96.9969 2.23571 99.8092 3.76003V3.76003C102.621 5.28435 103.667 8.80045 102.144 11.6135L73.0253 65.3956C72.7623 65.8812 72.1555 66.0616 71.67 65.7984L63.2441 61.2314C62.7585 60.9682 62.5781 60.3612 62.841 59.8755L91.9594 6.09341Z" stroke="white" stroke-width="6" stroke-linejoin="round"/>
    <path d="M40.2719 55.8196C41.1358 52.7286 44.6456 51.2411 47.4669 52.7703L87.7795 74.6205C90.5752 76.1359 91.2659 79.8423 89.2035 82.2624L70.1927 104.571C69.0031 105.967 67.1449 106.599 65.3509 106.218L59.9977 105.081L52.369 104.078L47.0819 104.078C46.7639 104.078 46.4467 104.108 46.1346 104.169L35.8825 106.148C33.7561 106.559 31.6069 105.553 30.559 103.656L29.1219 101.056C28.4869 99.9066 28.329 98.5538 28.6823 97.2895L40.2719 55.8196Z" stroke="white" stroke-width="6"/>
  </g>
  <defs>
    <filter id="filter0_d_838_14" x="0.0839844" y="0.0579834" width="109.76" height="141.442" filterUnits="userSpaceOnUse" color-interpolation-filters="sRGB">
      <feFlood flood-opacity="0" result="BackgroundImageFix"/>
      <feColorMatrix in="SourceAlpha" type="matrix" values="0 0 0 0 0 0 0 0 0 0 0 0 0 0 0 0 0 0 127 0" result="hardAlpha"/>
      <feOffset dy="4"/>
      <feGaussianBlur stdDeviation="2"/>
      <feComposite in2="hardAlpha" operator="out"/>
      <feColorMatrix type="matrix" values="0 0 0 0 0 0 0 0 0 0 0 0 0 0 0 0 0 0 0.25 0"/>
      <feBlend mode="normal" in2="BackgroundImageFix" result="effect1_dropShadow_838_14"/>
      <feBlend mode="normal" in="SourceGraphic" in2="effect1_dropShadow_838_14" result="shape"/>
    </filter>
  </defs>
</svg>