<svg xmlns="http://www.w3.org/2000/svg" width="14" height="16" viewBox="0 0 14 16" fill="none">
  <path fill-rule="evenodd" clip-rule="evenodd" d="M3.82538 1.26667C3.82538 0.567106 4.36327 0 5.02678 0H9.70589C10.3694 0 10.9073 0.567106 10.9073 1.26667V2.4H13.2468C13.631 2.4 13.9424 2.72832 13.9424 3.13333C13.9424 3.53834 13.631 3.86667 13.2468 3.86667H12.7414C12.7823 4.01475 12.8042 4.17134 12.8042 4.33333V14.3333C12.8042 15.2538 12.0965 16 11.2234 16H3.63569C2.76265 16 2.05491 15.2538 2.05491 14.3333V4.33333C2.05491 4.17134 2.07683 4.01475 2.11771 3.86667H1.48583C1.10169 3.86667 0.790283 3.53834 0.790283 3.13333C0.790283 2.72832 1.10169 2.4 1.48583 2.4H3.82538V1.26667ZM5.21647 2.4H9.5162V1.46667H5.21647V2.4ZM3.63569 4.13333C3.53093 4.13333 3.446 4.22288 3.446 4.33333V14.3333C3.446 14.4438 3.53093 14.5333 3.63569 14.5333H11.2234C11.3282 14.5333 11.4131 14.4438 11.4131 14.3333V4.33333C11.4131 4.22288 11.3282 4.13333 11.2234 4.13333H3.63569ZM5.02678 5.73333C5.41092 5.73333 5.72232 6.06166 5.72232 6.46667V12.468C5.72232 12.873 5.41092 13.2013 5.02678 13.2013C4.64264 13.2013 4.33123 12.873 4.33123 12.468V6.46667C4.33123 6.06166 4.64264 5.73333 5.02678 5.73333ZM7.42957 5.73333C7.81371 5.73333 8.12511 6.06166 8.12511 6.46667V12.468C8.12511 12.873 7.81371 13.2013 7.42957 13.2013C7.04543 13.2013 6.73402 12.873 6.73402 12.468V6.46667C6.73402 6.06166 7.04543 5.73333 7.42957 5.73333ZM9.83236 5.73333C10.2165 5.73333 10.5279 6.06166 10.5279 6.46667V12.468C10.5279 12.873 10.2165 13.2013 9.83236 13.2013C9.44822 13.2013 9.13681 12.873 9.13681 12.468V6.46667C9.13681 6.06166 9.44822 5.73333 9.83236 5.73333Z" fill="#B93857"/>
</svg>